<?xml version="1.0" encoding="utf-8"?>
<!-- Generator: Adobe Illustrator 19.0.0, SVG Export Plug-In . SVG Version: 6.00 Build 0)  -->
<svg version="1.1" id="Layer_1" xmlns="http://www.w3.org/2000/svg" xmlns:xlink="http://www.w3.org/1999/xlink" x="0px" y="0px"
	 viewBox="0 0 64 64" style="enable-background:new 0 0 64 64;" xml:space="preserve">
<g id="XMLID_1_">
	<path id="XMLID_26_" d="M56.6,31h-8.1c-1.5,0-2.7,1.1-2.8,2.5l-8.4-2.4L52.7,8.1c0.2-0.2,0.2-0.5,0.2-0.8s-0.2-0.5-0.4-0.6L46.8,3
		c-0.4-0.3-1-0.2-1.4,0.3L32,21.9l-5.1,7.2c-2.3,0.8-5.2,1.8-7.6,2.9c-3,1.4-4.9,2.8-5.8,4.4L5.6,47.9c-0.8,1.4-1,2.8-0.7,4.1
		c0.3,1.2,1,2.2,2,2.9c0.7,0.4,1.5,0.7,2.2,0.7c0.2,0,0.4,0,0.6-0.1c0.1,0,0.3-0.1,0.3-0.1v6.3l7.5-3.2c0.8,0.6,1.8,0.9,2.9,0.9
		c1.2,0.1,2.3-0.3,3.1-1c0.5,0.8,1.2,1.4,2,1.7c0.4,0.1,0.7,0.2,1.1,0.2c0.5,0,1-0.1,1.5-0.3c0.6-0.2,1-0.5,1.5-1
		c0.2,0.1,0.4,0.2,0.6,0.2c1.4,0.5,2.5,0.7,2.9,0.7h0c0,0,0,0,0,0l13.1-0.7c0.5,0.6,1.3,0.7,2.2,0.7h8.1c1.6,0,2.4-0.9,2.4-2.4v-24
		C59,32,58.1,31,56.6,31z M57,56.8c0,0.1-0.1,0.2-0.2,0.2h-8.6c-0.1,0-0.2-0.1-0.2-0.2V33.2c0-0.1,0.1-0.2,0.2-0.2h8.6
		c0.1,0,0.2,0.1,0.2,0.2V56.8z M20.5,57C20.5,57,20.5,57,20.5,57c-0.7,0-1.3,0-1.8-1h3.4C21.7,57,21.1,57,20.5,57z M7.8,49.2
		l7.8-11.5c1.2-2,5.4-3.8,8.7-5l-9.8,13.8c-1.4,0-2.5,0.6-3.3,1.6c-0.7,0.9-1.1,2-1,3.3c0,0.4,0,0.7,0.1,1c-0.7,0.8-1.6,0.4-1.9,0.3
		C7.4,52.1,6.9,50.8,7.8,49.2z M49.7,8L31.9,34.1L23.5,46h-5.9l11.1-15.3L46.6,5.9L49.7,8z M30.1,43.5c-0.1,0.9-0.3,1.6-0.8,2.1
		c-0.6,0.7-1.6,0.5-1.9,0.5c-0.2,0-0.4,0-0.5,0h-0.3l3.4-4.7C30.2,42,30.2,42.9,30.1,43.5z M13,55.8c0,0.2,0.8,0.2,1.5,0.2h1.3
		c0,0,0.2,0.2,0.3,0.3l-3,1.4V55.8z M26.1,56c0.3,1,0.8,1,1.2,1.4c-0.4,0.2-0.7,0.3-1,0.2c-0.3-0.1-0.5-0.4-0.7-0.8
		c-0.1-0.2-0.2-0.8-0.3-0.8H26.1z M28,54.3L28,54.3C27.8,54,27.5,54,27.1,54H14.5c-1.8,0-1.8-2.2-1.8-2.5c0-0.8,0.4-2.5,1.8-2.5
		h12.6c0,0,0.1,0,0.1,0c1.7,0,3.2-0.6,4.2-1.8c1.5-1.8,1.8-4.7,0.8-8.6l1.9-2.7l1.4-2.4l9.6,2.7v20.7l-12,0.4c0,0-0.9-0.1-2-0.5
		C29.5,56.2,28.5,55.4,28,54.3z"/>
	<path id="XMLID_36_" d="M52.5,56.3c1.4,0,2.5-1.1,2.5-2.5s-1.1-2.5-2.5-2.5s-2.5,1.1-2.5,2.5S51.2,56.3,52.5,56.3z M52.5,54.7
		c-0.5,0-0.9-0.4-0.9-0.9s0.4-0.9,0.9-0.9s0.9,0.4,0.9,0.9S53,54.7,52.5,54.7z"/>
</g>
</svg>
