<svg version="1.1" xmlns="http://www.w3.org/2000/svg" xmlns:xlink="http://www.w3.org/1999/xlink" width="25" height="25" viewBox="0 0 25 25"><path id="Tablet" d="M24.427,25.000 C24.312,24.875 24.190,24.756 24.084,24.624 C23.040,23.326 21.998,22.027 20.964,20.722 C20.886,20.623 20.840,20.473 20.839,20.347 C20.831,18.733 20.832,17.119 20.834,15.506 C20.835,14.986 20.729,14.493 20.509,14.020 C20.226,13.407 19.826,12.876 19.377,12.380 C19.060,12.030 18.732,11.692 18.409,11.349 C18.384,11.368 18.359,11.387 18.334,11.406 C18.334,11.473 18.334,11.541 18.334,11.608 C18.334,12.935 18.365,14.264 18.320,15.590 C18.298,16.224 18.404,16.743 18.951,17.112 C18.986,17.136 19.015,17.171 19.042,17.204 C19.190,17.383 19.192,17.620 19.049,17.771 C18.896,17.933 18.685,17.950 18.486,17.809 C18.415,17.759 18.355,17.695 18.294,17.634 C17.539,16.880 16.787,16.122 16.028,15.372 C15.701,15.048 15.189,15.016 14.898,15.287 C14.626,15.540 14.624,16.024 14.892,16.380 C15.672,17.421 16.444,18.469 17.239,19.498 C17.438,19.756 17.536,20.010 17.501,20.328 C17.435,20.941 17.604,21.506 17.925,22.013 C18.392,22.751 18.888,23.473 19.391,24.188 C19.650,24.557 19.641,24.740 19.271,25.000 C19.184,25.000 19.098,25.000 19.011,25.000 C18.950,24.942 18.881,24.891 18.830,24.826 C18.134,23.938 17.444,23.042 16.991,21.999 C16.881,21.744 16.766,21.659 16.489,21.660 C11.602,21.670 6.715,21.671 1.829,21.658 C1.519,21.658 1.191,21.581 0.903,21.461 C0.384,21.245 0.146,20.778 -0.000,20.261 C-0.000,13.976 -0.000,7.691 -0.000,1.406 C0.055,1.254 0.099,1.098 0.167,0.952 C0.413,0.420 0.864,0.149 1.406,-0.000 C6.580,-0.000 11.753,-0.000 16.927,-0.000 C18.045,0.306 18.354,1.091 18.344,2.037 C18.314,4.692 18.335,7.347 18.330,10.001 C18.330,10.162 18.372,10.270 18.498,10.378 C19.263,11.034 19.989,11.731 20.592,12.543 C21.258,13.441 21.685,14.420 21.672,15.569 C21.654,17.070 21.665,18.570 21.673,20.071 C21.674,20.188 21.721,20.327 21.794,20.419 C22.464,21.271 23.147,22.113 23.821,22.962 C24.219,23.464 24.607,23.974 25.000,24.479 C25.000,24.653 25.000,24.827 25.000,25.000 C24.809,25.000 24.618,25.000 24.427,25.000 zM14.982,14.312 C14.982,10.646 14.982,6.996 14.982,3.354 C11.089,3.354 7.215,3.354 3.340,3.354 C3.340,8.070 3.340,12.765 3.340,17.478 C7.123,17.478 10.880,17.478 14.672,17.478 C14.262,16.932 13.792,16.456 13.857,15.727 C13.922,14.998 14.297,14.526 14.982,14.312 zM17.500,15.391 C17.500,10.859 17.500,6.328 17.499,1.797 C17.499,1.164 17.170,0.834 16.536,0.834 C11.623,0.833 6.710,0.833 1.798,0.834 C1.161,0.834 0.835,1.160 0.834,1.796 C0.832,2.682 0.834,3.567 0.834,4.452 C0.834,9.573 0.833,14.695 0.835,19.816 C0.835,20.526 1.146,20.833 1.847,20.833 C6.682,20.833 11.516,20.833 16.351,20.833 C16.452,20.833 16.552,20.833 16.637,20.833 C16.730,20.389 16.644,20.044 16.363,19.720 C16.028,19.334 15.749,18.901 15.429,18.501 C15.361,18.416 15.222,18.341 15.115,18.341 C11.609,18.332 8.102,18.335 4.595,18.335 C3.904,18.335 3.212,18.335 2.516,18.335 C2.516,13.042 2.516,7.779 2.516,2.519 C6.964,2.519 11.394,2.519 15.837,2.519 C15.837,6.462 15.837,10.384 15.837,14.221 C16.162,14.462 16.451,14.650 16.707,14.875 C16.967,15.103 17.195,15.367 17.437,15.616 C17.458,15.607 17.479,15.599 17.500,15.591 C17.500,15.524 17.500,15.457 17.500,15.391 zM6.260,19.171 C6.480,19.177 6.669,19.376 6.662,19.593 C6.655,19.813 6.458,20.001 6.240,19.996 C6.022,19.992 5.832,19.792 5.837,19.573 C5.843,19.355 6.043,19.165 6.260,19.171 zM10.823,19.987 C9.721,19.987 8.632,19.987 7.520,19.987 C7.520,19.730 7.520,19.467 7.520,19.184 C8.609,19.184 9.705,19.184 10.823,19.184 C10.823,19.459 10.823,19.716 10.823,19.987 zM12.087,19.169 C12.303,19.172 12.497,19.369 12.496,19.587 C12.496,19.807 12.301,20.000 12.081,19.996 C11.862,19.993 11.668,19.797 11.669,19.581 C11.671,19.365 11.872,19.167 12.087,19.169 zM5.428,10.018 C7.915,10.018 10.399,10.018 12.905,10.018 C12.905,10.291 12.905,10.548 12.905,10.820 C10.410,10.820 7.926,10.820 5.428,10.820 C5.428,10.552 5.428,10.295 5.428,10.018 zM5.421,6.685 C7.912,6.685 10.396,6.685 12.899,6.685 C12.899,6.943 12.899,7.206 12.899,7.486 C10.412,7.486 7.928,7.486 5.421,7.486 C5.421,7.207 5.421,6.956 5.421,6.685 zM5.436,5.016 C6.804,5.016 8.178,5.016 9.571,5.016 C9.571,5.293 9.571,5.550 9.571,5.821 C8.192,5.821 6.825,5.821 5.436,5.821 C5.436,5.562 5.436,5.298 5.436,5.016 zM12.896,9.149 C10.418,9.149 7.933,9.149 5.428,9.149 C5.428,8.874 5.428,8.617 5.428,8.346 C7.918,8.346 10.396,8.346 12.896,8.346 C12.896,8.603 12.896,8.866 12.896,9.149 zM12.897,12.483 C10.417,12.483 7.933,12.483 5.428,12.483 C5.428,12.207 5.428,11.950 5.428,11.679 C7.919,11.679 10.397,11.679 12.897,11.679 C12.897,11.938 12.897,12.201 12.897,12.483 zM12.897,14.151 C10.418,14.151 7.933,14.151 5.428,14.151 C5.428,13.873 5.428,13.615 5.428,13.345 C7.919,13.345 10.397,13.345 12.897,13.345 C12.897,13.605 12.897,13.868 12.897,14.151 z" fill="#757575" /></svg>