<?xml version="1.0" ?><svg viewBox="0 0 512 512" xmlns="http://www.w3.org/2000/svg"><g id="Listening"><path d="M434.6666,322.6423l-9.9992-2.9131.088-.302a39.3229,39.3229,0,0,0,.07-21.8726c10.1877-55.67-5.681-115.4047-47.63-158.3915-32.7641-33.5747-76.3413-52.065-122.7031-52.065s-89.9385,18.49-122.7022,52.065C87.8657,184.1748,72.5345,247.5488,85.7726,305.3914a39.4922,39.4922,0,0,0,1.472,14.0358l.088.302-9.9992,2.9131a14.8031,14.8031,0,0,0-10.0716,18.3526L81.198,388.83a14.8029,14.8029,0,0,0,18.3525,10.0716l9.9991-2.9131.0881.3022a39.696,39.696,0,0,0,49.2388,27.021l23.1914-6.7563A20.0226,20.0226,0,0,0,195.6753,391.76L162.2534,277.04a20.0356,20.0356,0,0,0-24.7959-13.6075l-23.1914,6.7564a39.3625,39.3625,0,0,0-16.437,9.5364c-4.1959-46.2027,10.882-93.9134,45.2772-129.2452l11.2918,11.5711a22.3127,22.3127,0,0,0,29.3485,2.5449,118.4821,118.4821,0,0,1,141.4918,0,22.3121,22.3121,0,0,0,29.3484-2.5449L365.8789,150.48c33.7823,34.7021,48.9362,81.3469,45.4911,126.7747a39.4612,39.4612,0,0,0-13.6361-7.0657l-23.1914-6.7564A20.0356,20.0356,0,0,0,349.7466,277.04L316.3247,391.76a20.0226,20.0226,0,0,0,13.6074,24.7959l23.1914,6.7563a39.6981,39.6981,0,0,0,49.2388-27.021l.0881-.3022,9.9991,2.9131A14.8029,14.8029,0,0,0,430.802,388.83l13.9362-47.8354A14.8031,14.8031,0,0,0,434.6666,322.6423ZM104.6182,296.9277a23.5443,23.5443,0,0,1,12.2879-10.7439l29.2931,100.5481a8,8,0,1,0,15.3613-4.4756l-29.32-100.6391,9.6923-2.8237a3.9024,3.9024,0,0,1,1.0952-.1582,4.0846,4.0846,0,0,1,1.94.5043,3.9863,3.9863,0,0,1,1.9233,2.3755l33.4219,114.72a4.0537,4.0537,0,0,1-2.7217,4.9589l-23.1914,6.7564a23.74,23.74,0,0,1-29.4019-16.1353l-22.393-76.8637A23.5412,23.5412,0,0,1,104.6182,296.9277ZM387.001,391.8154a23.7447,23.7447,0,0,1-29.4019,16.1353l-23.1914-6.7564a4.0537,4.0537,0,0,1-2.7217-4.9589l33.4219-114.72a3.9863,3.9863,0,0,1,1.9233-2.3755,4.0832,4.0832,0,0,1,1.94-.5043,3.9024,3.9024,0,0,1,1.0952.1582l9.1459,2.6645L349.8467,382.2563a8,8,0,1,0,15.3613,4.4756l29.3474-100.7341a23.7663,23.7663,0,0,1,14.8386,28.9539Z"/></g></svg>